<svg xmlns="http://www.w3.org/2000/svg" xmlns:xlink="http://www.w3.org/1999/xlink" width="500" zoomAndPan="magnify" viewBox="0 0 375 374.999991" height="500" preserveAspectRatio="xMidYMid meet" version="1.2"><defs><linearGradient x1="0" gradientTransform="matrix(0.75,0,0,0.75,0.0000045,0)" y1="250" x2="499.999979" gradientUnits="userSpaceOnUse" y2="250" id="de300aedf0"><stop style="stop-color:#140028;stop-opacity:1;" offset="0"/><stop style="stop-color:#140028;stop-opacity:1;" offset="0.0078125"/><stop style="stop-color:#140029;stop-opacity:1;" offset="0.015625"/><stop style="stop-color:#15002a;stop-opacity:1;" offset="0.0234375"/><stop style="stop-color:#15002b;stop-opacity:1;" offset="0.03125"/><stop style="stop-color:#15002b;stop-opacity:1;" offset="0.0390625"/><stop style="stop-color:#15002c;stop-opacity:1;" offset="0.046875"/><stop style="stop-color:#16002d;stop-opacity:1;" offset="0.0546875"/><stop style="stop-color:#16002d;stop-opacity:1;" offset="0.0625"/><stop style="stop-color:#16002e;stop-opacity:1;" offset="0.0703125"/><stop style="stop-color:#16002f;stop-opacity:1;" offset="0.078125"/><stop style="stop-color:#170030;stop-opacity:1;" offset="0.0859375"/><stop style="stop-color:#170030;stop-opacity:1;" offset="0.09375"/><stop style="stop-color:#170031;stop-opacity:1;" offset="0.101562"/><stop style="stop-color:#170032;stop-opacity:1;" offset="0.109375"/><stop style="stop-color:#180032;stop-opacity:1;" offset="0.117188"/><stop style="stop-color:#180033;stop-opacity:1;" offset="0.125"/><stop style="stop-color:#180034;stop-opacity:1;" offset="0.132812"/><stop style="stop-color:#190035;stop-opacity:1;" offset="0.140625"/><stop style="stop-color:#190035;stop-opacity:1;" offset="0.148437"/><stop style="stop-color:#190036;stop-opacity:1;" offset="0.15625"/><stop style="stop-color:#190037;stop-opacity:1;" offset="0.164062"/><stop style="stop-color:#1a0037;stop-opacity:1;" offset="0.171875"/><stop style="stop-color:#1a0038;stop-opacity:1;" offset="0.179687"/><stop style="stop-color:#1a0039;stop-opacity:1;" offset="0.1875"/><stop style="stop-color:#1a003a;stop-opacity:1;" offset="0.195312"/><stop style="stop-color:#1b003a;stop-opacity:1;" offset="0.203125"/><stop style="stop-color:#1b003b;stop-opacity:1;" offset="0.210938"/><stop style="stop-color:#1b003c;stop-opacity:1;" offset="0.21875"/><stop style="stop-color:#1b003d;stop-opacity:1;" offset="0.226562"/><stop style="stop-color:#1c003d;stop-opacity:1;" offset="0.234375"/><stop style="stop-color:#1c003e;stop-opacity:1;" offset="0.242188"/><stop style="stop-color:#1c003f;stop-opacity:1;" offset="0.25"/><stop style="stop-color:#1d003f;stop-opacity:1;" offset="0.257812"/><stop style="stop-color:#1d0040;stop-opacity:1;" offset="0.265625"/><stop style="stop-color:#1d0041;stop-opacity:1;" offset="0.273437"/><stop style="stop-color:#1d0042;stop-opacity:1;" offset="0.28125"/><stop style="stop-color:#1e0042;stop-opacity:1;" offset="0.289062"/><stop style="stop-color:#1e0043;stop-opacity:1;" offset="0.296875"/><stop style="stop-color:#1e0044;stop-opacity:1;" offset="0.304687"/><stop style="stop-color:#1e0044;stop-opacity:1;" offset="0.3125"/><stop style="stop-color:#1f0045;stop-opacity:1;" offset="0.320312"/><stop style="stop-color:#1f0046;stop-opacity:1;" offset="0.328125"/><stop style="stop-color:#1f0047;stop-opacity:1;" offset="0.335937"/><stop style="stop-color:#1f0047;stop-opacity:1;" offset="0.34375"/><stop style="stop-color:#200048;stop-opacity:1;" offset="0.351562"/><stop style="stop-color:#200049;stop-opacity:1;" offset="0.359375"/><stop style="stop-color:#200049;stop-opacity:1;" offset="0.367187"/><stop style="stop-color:#21004a;stop-opacity:1;" offset="0.375"/><stop style="stop-color:#21004b;stop-opacity:1;" offset="0.382812"/><stop style="stop-color:#21004c;stop-opacity:1;" offset="0.390625"/><stop style="stop-color:#21004c;stop-opacity:1;" offset="0.398438"/><stop style="stop-color:#22004d;stop-opacity:1;" offset="0.40625"/><stop style="stop-color:#22004e;stop-opacity:1;" offset="0.414062"/><stop style="stop-color:#22004f;stop-opacity:1;" offset="0.421875"/><stop style="stop-color:#22004f;stop-opacity:1;" offset="0.429688"/><stop style="stop-color:#230050;stop-opacity:1;" offset="0.4375"/><stop style="stop-color:#230051;stop-opacity:1;" offset="0.445312"/><stop style="stop-color:#230051;stop-opacity:1;" offset="0.453125"/><stop style="stop-color:#240052;stop-opacity:1;" offset="0.460938"/><stop style="stop-color:#240053;stop-opacity:1;" offset="0.46875"/><stop style="stop-color:#240054;stop-opacity:1;" offset="0.476562"/><stop style="stop-color:#240054;stop-opacity:1;" offset="0.484375"/><stop style="stop-color:#250055;stop-opacity:1;" offset="0.492188"/><stop style="stop-color:#250056;stop-opacity:1;" offset="0.5"/><stop style="stop-color:#250056;stop-opacity:1;" offset="0.507812"/><stop style="stop-color:#250057;stop-opacity:1;" offset="0.515625"/><stop style="stop-color:#260058;stop-opacity:1;" offset="0.523437"/><stop style="stop-color:#260059;stop-opacity:1;" offset="0.53125"/><stop style="stop-color:#260059;stop-opacity:1;" offset="0.539062"/><stop style="stop-color:#26005a;stop-opacity:1;" offset="0.546875"/><stop style="stop-color:#27005b;stop-opacity:1;" offset="0.554687"/><stop style="stop-color:#27005b;stop-opacity:1;" offset="0.5625"/><stop style="stop-color:#27005c;stop-opacity:1;" offset="0.570312"/><stop style="stop-color:#28005d;stop-opacity:1;" offset="0.578125"/><stop style="stop-color:#28005e;stop-opacity:1;" offset="0.585937"/><stop style="stop-color:#28005e;stop-opacity:1;" offset="0.59375"/><stop style="stop-color:#28005f;stop-opacity:1;" offset="0.601562"/><stop style="stop-color:#290060;stop-opacity:1;" offset="0.609375"/><stop style="stop-color:#290060;stop-opacity:1;" offset="0.617187"/><stop style="stop-color:#290061;stop-opacity:1;" offset="0.625"/><stop style="stop-color:#290062;stop-opacity:1;" offset="0.632812"/><stop style="stop-color:#2a0063;stop-opacity:1;" offset="0.640625"/><stop style="stop-color:#2a0063;stop-opacity:1;" offset="0.648437"/><stop style="stop-color:#2a0064;stop-opacity:1;" offset="0.65625"/><stop style="stop-color:#2a0065;stop-opacity:1;" offset="0.664062"/><stop style="stop-color:#2b0066;stop-opacity:1;" offset="0.671875"/><stop style="stop-color:#2b0066;stop-opacity:1;" offset="0.679687"/><stop style="stop-color:#2b0067;stop-opacity:1;" offset="0.6875"/><stop style="stop-color:#2c0068;stop-opacity:1;" offset="0.695312"/><stop style="stop-color:#2c0068;stop-opacity:1;" offset="0.703125"/><stop style="stop-color:#2c0069;stop-opacity:1;" offset="0.710937"/><stop style="stop-color:#2c006a;stop-opacity:1;" offset="0.71875"/><stop style="stop-color:#2d006b;stop-opacity:1;" offset="0.726562"/><stop style="stop-color:#2d006b;stop-opacity:1;" offset="0.734375"/><stop style="stop-color:#2d006c;stop-opacity:1;" offset="0.742187"/><stop style="stop-color:#2d006d;stop-opacity:1;" offset="0.75"/><stop style="stop-color:#2e006d;stop-opacity:1;" offset="0.757812"/><stop style="stop-color:#2e006e;stop-opacity:1;" offset="0.765625"/><stop style="stop-color:#2e006f;stop-opacity:1;" offset="0.773438"/><stop style="stop-color:#2e0070;stop-opacity:1;" offset="0.78125"/><stop style="stop-color:#2f0070;stop-opacity:1;" offset="0.789062"/><stop style="stop-color:#2f0071;stop-opacity:1;" offset="0.796875"/><stop style="stop-color:#2f0072;stop-opacity:1;" offset="0.804688"/><stop style="stop-color:#300072;stop-opacity:1;" offset="0.8125"/><stop style="stop-color:#300073;stop-opacity:1;" offset="0.820312"/><stop style="stop-color:#300074;stop-opacity:1;" offset="0.828125"/><stop style="stop-color:#300075;stop-opacity:1;" offset="0.835938"/><stop style="stop-color:#310075;stop-opacity:1;" offset="0.84375"/><stop style="stop-color:#310076;stop-opacity:1;" offset="0.851562"/><stop style="stop-color:#310077;stop-opacity:1;" offset="0.859375"/><stop style="stop-color:#310078;stop-opacity:1;" offset="0.867188"/><stop style="stop-color:#320078;stop-opacity:1;" offset="0.875"/><stop style="stop-color:#320079;stop-opacity:1;" offset="0.882812"/><stop style="stop-color:#32007a;stop-opacity:1;" offset="0.890625"/><stop style="stop-color:#32007a;stop-opacity:1;" offset="0.898438"/><stop style="stop-color:#33007b;stop-opacity:1;" offset="0.90625"/><stop style="stop-color:#33007c;stop-opacity:1;" offset="0.914062"/><stop style="stop-color:#33007d;stop-opacity:1;" offset="0.921875"/><stop style="stop-color:#34007d;stop-opacity:1;" offset="0.929688"/><stop style="stop-color:#34007e;stop-opacity:1;" offset="0.9375"/><stop style="stop-color:#34007f;stop-opacity:1;" offset="0.945312"/><stop style="stop-color:#34007f;stop-opacity:1;" offset="0.953125"/><stop style="stop-color:#350080;stop-opacity:1;" offset="0.960938"/><stop style="stop-color:#350081;stop-opacity:1;" offset="0.96875"/><stop style="stop-color:#350082;stop-opacity:1;" offset="0.976562"/><stop style="stop-color:#350082;stop-opacity:1;" offset="0.984375"/><stop style="stop-color:#360083;stop-opacity:1;" offset="0.992188"/><stop style="stop-color:#360084;stop-opacity:1;" offset="1"/></linearGradient><clipPath id="d191e33394"><path d="M 92.304688 109 L 291 109 L 291 242.4375 L 92.304688 242.4375 Z M 92.304688 109 "/></clipPath><clipPath id="4413ead78f"><path d="M 215 119 L 249.953125 119 L 249.953125 177 L 215 177 Z M 215 119 "/></clipPath><clipPath id="2b8387bfb1"><path d="M 132.953125 119 L 168 119 L 168 177 L 132.953125 177 Z M 132.953125 119 "/></clipPath><clipPath id="cbfcdf201d"><path d="M 170 105.589844 L 210 105.589844 L 210 191.089844 L 170 191.089844 Z M 170 105.589844 "/></clipPath></defs><g id="9532958931"><rect x="0" width="375" y="0" height="374.999991" style="fill:#ffffff;fill-opacity:1;stroke:none;"/><rect x="0" width="375" y="0" height="374.999991" style="fill:url(#de300aedf0);stroke:none;"/><g clip-rule="nonzero" clip-path="url(#d191e33394)"><path style=" stroke:none;fill-rule:nonzero;fill:#8b38d7;fill-opacity:1;" d="M 210.972656 242.285156 L 172.292969 242.285156 C 171.328125 242.285156 170.398438 241.894531 169.71875 241.207031 L 160.894531 232.25 L 96.292969 232.25 C 94.296875 232.25 92.683594 230.632812 92.683594 228.636719 L 92.683594 112.777344 C 92.683594 110.78125 94.296875 109.164062 96.292969 109.164062 C 98.285156 109.164062 99.902344 110.78125 99.902344 112.777344 L 99.902344 225.027344 L 162.402344 225.027344 C 163.367188 225.027344 164.296875 225.417969 164.976562 226.105469 L 173.808594 235.0625 L 209.457031 235.0625 L 218.285156 226.105469 C 218.964844 225.417969 219.890625 225.027344 220.859375 225.027344 L 283.359375 225.027344 L 283.359375 112.777344 C 283.359375 110.78125 284.972656 109.164062 286.96875 109.164062 C 288.960938 109.164062 290.578125 110.78125 290.578125 112.777344 L 290.578125 228.636719 C 290.578125 230.632812 288.960938 232.25 286.96875 232.25 L 222.367188 232.25 L 213.542969 241.207031 C 212.863281 241.894531 211.933594 242.285156 210.972656 242.285156 "/></g><path style=" stroke:none;fill-rule:nonzero;fill:#8b38d7;fill-opacity:1;" d="M 191.632812 227.472656 C 189.636719 227.472656 188.019531 225.855469 188.019531 223.863281 C 188.019531 218.425781 177.96875 217.199219 176.125 217.199219 L 113.046875 217.199219 C 111.054688 217.199219 109.4375 215.578125 109.4375 213.589844 L 109.4375 103.195312 C 109.4375 101.203125 111.054688 99.585938 113.046875 99.585938 C 115.039062 99.585938 116.65625 101.203125 116.65625 103.195312 L 116.65625 209.980469 L 176.125 209.980469 C 181.082031 209.980469 195.242188 212.523438 195.242188 223.863281 C 195.242188 225.855469 193.625 227.472656 191.632812 227.472656 "/><path style=" stroke:none;fill-rule:nonzero;fill:#8b38d7;fill-opacity:1;" d="M 191.632812 227.472656 C 189.636719 227.472656 188.019531 225.855469 188.019531 223.863281 C 188.019531 212.523438 202.179688 209.980469 207.136719 209.980469 L 266.605469 209.980469 L 266.605469 103.195312 C 266.605469 101.203125 268.222656 99.585938 270.214844 99.585938 C 272.210938 99.585938 273.824219 101.203125 273.824219 103.195312 L 273.824219 213.589844 C 273.824219 215.578125 272.210938 217.199219 270.214844 217.199219 L 207.136719 217.199219 C 205.292969 217.199219 195.242188 218.425781 195.242188 223.863281 C 195.242188 225.855469 193.625 227.472656 191.632812 227.472656 "/><path style=" stroke:none;fill-rule:nonzero;fill:#8b38d7;fill-opacity:1;" d="M 133.128906 188.390625 C 141.59375 190.875 167.90625 198.648438 176.03125 201.746094 C 180.699219 203.519531 184.835938 206.941406 188.019531 210.234375 L 188.019531 110.148438 C 188.019531 97.9375 155.996094 86.382812 133.128906 81.15625 Z M 191.632812 224.105469 C 190.410156 224.105469 189.246094 223.484375 188.574219 222.421875 C 188.503906 222.3125 181.6875 211.628906 173.457031 208.488281 C 164.207031 204.96875 128.863281 194.667969 128.511719 194.566406 C 126.96875 194.113281 125.914062 192.707031 125.914062 191.097656 L 125.914062 76.683594 C 125.914062 75.597656 126.398438 74.574219 127.238281 73.886719 C 128.074219 73.203125 129.179688 72.933594 130.238281 73.144531 C 136.894531 74.5 195.242188 87.0625 195.242188 110.148438 L 195.242188 220.492188 C 195.242188 222.105469 194.175781 223.511719 192.636719 223.957031 C 192.296875 224.058594 191.960938 224.105469 191.632812 224.105469 "/><path style=" stroke:none;fill-rule:nonzero;fill:#8b38d7;fill-opacity:1;" d="M 250.128906 81.15625 C 227.265625 86.398438 195.242188 97.941406 195.242188 110.148438 L 195.242188 210.234375 C 198.429688 206.941406 202.5625 203.527344 207.230469 201.746094 C 215.355469 198.648438 241.667969 190.875 250.128906 188.390625 Z M 191.632812 224.105469 C 191.292969 224.105469 190.957031 224.058594 190.628906 223.957031 C 189.085938 223.511719 188.019531 222.105469 188.019531 220.492188 L 188.019531 110.148438 C 188.019531 87.0625 246.371094 74.5 253.019531 73.144531 C 254.074219 72.929688 255.1875 73.203125 256.023438 73.886719 C 256.863281 74.574219 257.347656 75.597656 257.347656 76.683594 L 257.347656 191.097656 C 257.347656 192.707031 256.292969 194.113281 254.75 194.566406 C 254.390625 194.667969 219.054688 204.96875 209.804688 208.488281 C 201.574219 211.628906 194.75 222.3125 194.6875 222.421875 C 194.015625 223.484375 192.84375 224.105469 191.632812 224.105469 "/><g clip-rule="nonzero" clip-path="url(#4413ead78f)"><path style=" stroke:none;fill-rule:nonzero;fill:#8b38d7;fill-opacity:1;" d="M 224.1875 176.839844 L 215.636719 169.714844 L 235.015625 148.339844 L 215.636719 126.964844 L 224.1875 119.839844 L 249.835938 148.339844 Z M 224.1875 176.839844 "/></g><g clip-rule="nonzero" clip-path="url(#2b8387bfb1)"><path style=" stroke:none;fill-rule:nonzero;fill:#8b38d7;fill-opacity:1;" d="M 158.636719 176.839844 L 132.988281 148.339844 L 158.636719 119.839844 L 167.1875 126.964844 L 147.523438 148.339844 L 167.1875 169.714844 Z M 158.636719 176.839844 "/></g><g clip-rule="nonzero" clip-path="url(#cbfcdf201d)"><path style=" stroke:none;fill-rule:nonzero;fill:#ffffff;fill-opacity:1;" d="M 181.4375 191.089844 L 170.605469 187.382812 L 198.535156 105.589844 L 209.367188 109.292969 Z M 181.4375 191.089844 "/></g><g style="fill:#8b38d7;fill-opacity:1;"><g transform="translate(129.527514, 298.967604)"><path style="stroke:none" d="M 1.53125 -42.65625 L 20.8125 -42.65625 L 20.8125 -34.609375 L 17.578125 -34.609375 L 17.578125 -8.109375 L 25.453125 -8.109375 L 25.453125 -15.875 L 35.703125 -15.875 L 35.703125 0 L 1.53125 0 L 1.53125 -8.109375 L 4.875 -8.109375 L 4.875 -34.609375 L 1.53125 -34.609375 Z M 1.53125 -42.65625 "/></g></g><g style="fill:#ffffff;fill-opacity:1;"><g transform="translate(166.090011, 298.967604)"><path style="stroke:none" d="M 1.53125 -42.65625 L 21.359375 -42.65625 C 24.898438 -42.65625 27.78125 -42.328125 30 -41.671875 C 32.21875 -41.023438 33.925781 -40.125 35.125 -38.96875 C 36.320312 -37.8125 37.144531 -36.476562 37.59375 -34.96875 C 38.039062 -33.46875 38.265625 -31.84375 38.265625 -30.09375 C 38.265625 -27.726562 37.421875 -25.75 35.734375 -24.15625 C 34.046875 -22.570312 31.941406 -21.597656 29.421875 -21.234375 C 30.835938 -21.035156 32.144531 -20.53125 33.34375 -19.71875 C 34.550781 -18.90625 35.53125 -17.875 36.28125 -16.625 C 37.03125 -15.382812 37.40625 -14.035156 37.40625 -12.578125 C 37.40625 -11.273438 37.515625 -10.253906 37.734375 -9.515625 C 37.960938 -8.785156 38.34375 -8.421875 38.875 -8.421875 C 39.8125 -8.421875 40.28125 -9.070312 40.28125 -10.375 L 40.28125 -12.390625 L 44.375 -12.390625 L 44.375 -9.03125 C 44.375 -7.363281 44.097656 -5.773438 43.546875 -4.265625 C 42.992188 -2.765625 42.078125 -1.554688 40.796875 -0.640625 C 39.515625 0.273438 37.734375 0.734375 35.453125 0.734375 C 31.472656 0.734375 28.503906 -0.257812 26.546875 -2.25 C 24.597656 -4.25 23.625 -7.039062 23.625 -10.625 C 23.625 -12.488281 23.488281 -13.910156 23.21875 -14.890625 C 22.957031 -15.867188 22.398438 -16.550781 21.546875 -16.9375 C 20.691406 -17.320312 19.347656 -17.515625 17.515625 -17.515625 L 17.515625 -8.0625 L 21.234375 -8.0625 L 21.234375 0 L 1.53125 0 L 1.53125 -8.0625 L 4.9375 -8.0625 L 4.9375 -34.671875 L 1.53125 -34.671875 Z M 17.515625 -34.734375 L 17.515625 -24.34375 L 20.265625 -24.34375 C 22.054688 -24.34375 23.476562 -24.757812 24.53125 -25.59375 C 25.59375 -26.4375 26.125 -27.671875 26.125 -29.296875 C 26.125 -31.085938 25.644531 -32.441406 24.6875 -33.359375 C 23.726562 -34.273438 22.351562 -34.734375 20.5625 -34.734375 Z M 17.515625 -34.734375 "/></g></g><g style="fill:#8b38d7;fill-opacity:1;"><g transform="translate(210.398606, 298.967604)"><path style="stroke:none" d="M 1.53125 0 L 1.53125 -15.375 L 12.875 -15.375 C 12.875 -14.113281 13.148438 -13.085938 13.703125 -12.296875 C 14.253906 -11.503906 14.945312 -10.894531 15.78125 -10.46875 C 16.613281 -10.039062 17.457031 -9.742188 18.3125 -9.578125 C 19.164062 -9.421875 19.914062 -9.320312 20.5625 -9.28125 C 21.300781 -9.28125 22.066406 -9.347656 22.859375 -9.484375 C 23.648438 -9.628906 24.328125 -9.925781 24.890625 -10.375 C 25.460938 -10.820312 25.75 -11.472656 25.75 -12.328125 C 25.75 -13.015625 25.320312 -13.582031 24.46875 -14.03125 C 23.613281 -14.476562 22.492188 -14.90625 21.109375 -15.3125 C 19.734375 -15.71875 18.207031 -16.15625 16.53125 -16.625 C 14.863281 -17.09375 13.195312 -17.671875 11.53125 -18.359375 C 9.863281 -19.054688 8.335938 -19.941406 6.953125 -21.015625 C 5.566406 -22.097656 4.445312 -23.410156 3.59375 -24.953125 C 2.738281 -26.503906 2.3125 -28.398438 2.3125 -30.640625 C 2.3125 -32.921875 2.78125 -34.882812 3.71875 -36.53125 C 4.65625 -38.175781 5.863281 -39.523438 7.34375 -40.578125 C 8.832031 -41.640625 10.410156 -42.4375 12.078125 -42.96875 C 13.753906 -43.5 15.34375 -43.765625 16.84375 -43.765625 C 19.40625 -43.765625 21.863281 -43.296875 24.21875 -42.359375 C 26.582031 -41.421875 28.375 -39.8125 29.59375 -37.53125 L 30.203125 -42.65625 L 40.703125 -42.65625 L 40.703125 -27.34375 L 29.65625 -27.34375 C 29.65625 -29.625 28.890625 -31.375 27.359375 -32.59375 C 25.835938 -33.8125 24 -34.421875 21.84375 -34.421875 C 20.945312 -34.421875 20.019531 -34.144531 19.0625 -33.59375 C 18.113281 -33.050781 17.640625 -32.25 17.640625 -31.1875 C 17.640625 -30.289062 18.078125 -29.523438 18.953125 -28.890625 C 19.828125 -28.265625 20.984375 -27.6875 22.421875 -27.15625 C 23.867188 -26.625 25.445312 -26.082031 27.15625 -25.53125 C 28.863281 -24.988281 30.570312 -24.347656 32.28125 -23.609375 C 33.988281 -22.878906 35.566406 -22.003906 37.015625 -20.984375 C 38.460938 -19.972656 39.625 -18.734375 40.5 -17.265625 C 41.375 -15.804688 41.8125 -14.054688 41.8125 -12.015625 C 41.8125 -9.660156 41.320312 -7.648438 40.34375 -5.984375 C 39.363281 -4.316406 38.070312 -2.984375 36.46875 -1.984375 C 34.863281 -0.984375 33.113281 -0.25 31.21875 0.21875 C 29.320312 0.6875 27.460938 0.921875 25.640625 0.921875 C 22.546875 0.921875 19.9375 0.332031 17.8125 -0.84375 C 15.695312 -2.03125 14.050781 -3.316406 12.875 -4.703125 L 12.203125 0 Z M 1.53125 0 "/></g></g></g></svg>